%TF.GenerationSoftware,KiCad,Pcbnew,9.0.6*%
%TF.CreationDate,2026-06-18T17:02:09+02:00*%
%TF.ProjectId,seminarskiGS,73656d69-6e61-4727-936b-6947532e6b69,rev?*%
%TF.SameCoordinates,Original*%
%TF.FileFunction,Drillmap*%
%TF.FilePolarity,Positive*%
%FSLAX45Y45*%
G04 Gerber Fmt 4.5, Leading zero omitted, Abs format (unit mm)*
G04 Created by KiCad (PCBNEW 9.0.6) date 2026-06-18 17:02:09*
%MOMM*%
%LPD*%
G01*
G04 APERTURE LIST*
%ADD10C,0.200000*%
%ADD11C,0.320000*%
G04 APERTURE END LIST*
D10*
X7960000Y-13100000D02*
G75*
G02*
X7460000Y-12600000I0J500000D01*
G01*
X7460000Y-3600000D02*
G75*
G02*
X7960000Y-3100000I500000J0D01*
G01*
X22460000Y-12600000D02*
G75*
G02*
X21960000Y-13100000I-500000J0D01*
G01*
X21960000Y-3100000D02*
G75*
G02*
X22460000Y-3600000I0J-500000D01*
G01*
X7960000Y-3100000D02*
X21960000Y-3100000D01*
X7460000Y-3600000D02*
X7460000Y-12600000D01*
X21960000Y-13100000D02*
X7960000Y-13100000D01*
X22460000Y-3600000D02*
X22460000Y-12600000D01*
D11*
X7940000Y-12380000D02*
X8260000Y-12700000D01*
X8260000Y-12380000D02*
X7940000Y-12700000D01*
X8000000Y-3520000D02*
X8320000Y-3840000D01*
X8320000Y-3520000D02*
X8000000Y-3840000D01*
X21640000Y-3500000D02*
X21960000Y-3820000D01*
X21960000Y-3500000D02*
X21640000Y-3820000D01*
X21640000Y-12280000D02*
X21960000Y-12600000D01*
X21960000Y-12280000D02*
X21640000Y-12600000D01*
D10*
X7710777Y-13421484D02*
X7710777Y-13221484D01*
X7710777Y-13221484D02*
X7758396Y-13221484D01*
X7758396Y-13221484D02*
X7786967Y-13231008D01*
X7786967Y-13231008D02*
X7806015Y-13250055D01*
X7806015Y-13250055D02*
X7815539Y-13269103D01*
X7815539Y-13269103D02*
X7825062Y-13307198D01*
X7825062Y-13307198D02*
X7825062Y-13335769D01*
X7825062Y-13335769D02*
X7815539Y-13373865D01*
X7815539Y-13373865D02*
X7806015Y-13392912D01*
X7806015Y-13392912D02*
X7786967Y-13411960D01*
X7786967Y-13411960D02*
X7758396Y-13421484D01*
X7758396Y-13421484D02*
X7710777Y-13421484D01*
X7910777Y-13421484D02*
X7910777Y-13288150D01*
X7910777Y-13326246D02*
X7920301Y-13307198D01*
X7920301Y-13307198D02*
X7929824Y-13297674D01*
X7929824Y-13297674D02*
X7948872Y-13288150D01*
X7948872Y-13288150D02*
X7967920Y-13288150D01*
X8034586Y-13421484D02*
X8034586Y-13288150D01*
X8034586Y-13221484D02*
X8025062Y-13231008D01*
X8025062Y-13231008D02*
X8034586Y-13240531D01*
X8034586Y-13240531D02*
X8044110Y-13231008D01*
X8044110Y-13231008D02*
X8034586Y-13221484D01*
X8034586Y-13221484D02*
X8034586Y-13240531D01*
X8158396Y-13421484D02*
X8139348Y-13411960D01*
X8139348Y-13411960D02*
X8129824Y-13392912D01*
X8129824Y-13392912D02*
X8129824Y-13221484D01*
X8263158Y-13421484D02*
X8244110Y-13411960D01*
X8244110Y-13411960D02*
X8234586Y-13392912D01*
X8234586Y-13392912D02*
X8234586Y-13221484D01*
X8491729Y-13421484D02*
X8491729Y-13221484D01*
X8491729Y-13221484D02*
X8558396Y-13364341D01*
X8558396Y-13364341D02*
X8625063Y-13221484D01*
X8625063Y-13221484D02*
X8625063Y-13421484D01*
X8806015Y-13421484D02*
X8806015Y-13316722D01*
X8806015Y-13316722D02*
X8796491Y-13297674D01*
X8796491Y-13297674D02*
X8777444Y-13288150D01*
X8777444Y-13288150D02*
X8739348Y-13288150D01*
X8739348Y-13288150D02*
X8720301Y-13297674D01*
X8806015Y-13411960D02*
X8786967Y-13421484D01*
X8786967Y-13421484D02*
X8739348Y-13421484D01*
X8739348Y-13421484D02*
X8720301Y-13411960D01*
X8720301Y-13411960D02*
X8710777Y-13392912D01*
X8710777Y-13392912D02*
X8710777Y-13373865D01*
X8710777Y-13373865D02*
X8720301Y-13354817D01*
X8720301Y-13354817D02*
X8739348Y-13345293D01*
X8739348Y-13345293D02*
X8786967Y-13345293D01*
X8786967Y-13345293D02*
X8806015Y-13335769D01*
X8901253Y-13288150D02*
X8901253Y-13488150D01*
X8901253Y-13297674D02*
X8920301Y-13288150D01*
X8920301Y-13288150D02*
X8958396Y-13288150D01*
X8958396Y-13288150D02*
X8977444Y-13297674D01*
X8977444Y-13297674D02*
X8986967Y-13307198D01*
X8986967Y-13307198D02*
X8996491Y-13326246D01*
X8996491Y-13326246D02*
X8996491Y-13383388D01*
X8996491Y-13383388D02*
X8986967Y-13402436D01*
X8986967Y-13402436D02*
X8977444Y-13411960D01*
X8977444Y-13411960D02*
X8958396Y-13421484D01*
X8958396Y-13421484D02*
X8920301Y-13421484D01*
X8920301Y-13421484D02*
X8901253Y-13411960D01*
X9082205Y-13402436D02*
X9091729Y-13411960D01*
X9091729Y-13411960D02*
X9082205Y-13421484D01*
X9082205Y-13421484D02*
X9072682Y-13411960D01*
X9072682Y-13411960D02*
X9082205Y-13402436D01*
X9082205Y-13402436D02*
X9082205Y-13421484D01*
X9082205Y-13297674D02*
X9091729Y-13307198D01*
X9091729Y-13307198D02*
X9082205Y-13316722D01*
X9082205Y-13316722D02*
X9072682Y-13307198D01*
X9072682Y-13307198D02*
X9082205Y-13297674D01*
X9082205Y-13297674D02*
X9082205Y-13316722D01*
X7250000Y-13650000D02*
X7450000Y-13850000D01*
X7450000Y-13650000D02*
X7250000Y-13850000D01*
X7691729Y-13641484D02*
X7815539Y-13641484D01*
X7815539Y-13641484D02*
X7748872Y-13717674D01*
X7748872Y-13717674D02*
X7777443Y-13717674D01*
X7777443Y-13717674D02*
X7796491Y-13727198D01*
X7796491Y-13727198D02*
X7806015Y-13736722D01*
X7806015Y-13736722D02*
X7815539Y-13755769D01*
X7815539Y-13755769D02*
X7815539Y-13803388D01*
X7815539Y-13803388D02*
X7806015Y-13822436D01*
X7806015Y-13822436D02*
X7796491Y-13831960D01*
X7796491Y-13831960D02*
X7777443Y-13841484D01*
X7777443Y-13841484D02*
X7720301Y-13841484D01*
X7720301Y-13841484D02*
X7701253Y-13831960D01*
X7701253Y-13831960D02*
X7691729Y-13822436D01*
X7901253Y-13822436D02*
X7910777Y-13831960D01*
X7910777Y-13831960D02*
X7901253Y-13841484D01*
X7901253Y-13841484D02*
X7891729Y-13831960D01*
X7891729Y-13831960D02*
X7901253Y-13822436D01*
X7901253Y-13822436D02*
X7901253Y-13841484D01*
X7986967Y-13660531D02*
X7996491Y-13651008D01*
X7996491Y-13651008D02*
X8015539Y-13641484D01*
X8015539Y-13641484D02*
X8063158Y-13641484D01*
X8063158Y-13641484D02*
X8082205Y-13651008D01*
X8082205Y-13651008D02*
X8091729Y-13660531D01*
X8091729Y-13660531D02*
X8101253Y-13679579D01*
X8101253Y-13679579D02*
X8101253Y-13698627D01*
X8101253Y-13698627D02*
X8091729Y-13727198D01*
X8091729Y-13727198D02*
X7977443Y-13841484D01*
X7977443Y-13841484D02*
X8101253Y-13841484D01*
X8225062Y-13641484D02*
X8244110Y-13641484D01*
X8244110Y-13641484D02*
X8263158Y-13651008D01*
X8263158Y-13651008D02*
X8272682Y-13660531D01*
X8272682Y-13660531D02*
X8282205Y-13679579D01*
X8282205Y-13679579D02*
X8291729Y-13717674D01*
X8291729Y-13717674D02*
X8291729Y-13765293D01*
X8291729Y-13765293D02*
X8282205Y-13803388D01*
X8282205Y-13803388D02*
X8272682Y-13822436D01*
X8272682Y-13822436D02*
X8263158Y-13831960D01*
X8263158Y-13831960D02*
X8244110Y-13841484D01*
X8244110Y-13841484D02*
X8225062Y-13841484D01*
X8225062Y-13841484D02*
X8206015Y-13831960D01*
X8206015Y-13831960D02*
X8196491Y-13822436D01*
X8196491Y-13822436D02*
X8186967Y-13803388D01*
X8186967Y-13803388D02*
X8177443Y-13765293D01*
X8177443Y-13765293D02*
X8177443Y-13717674D01*
X8177443Y-13717674D02*
X8186967Y-13679579D01*
X8186967Y-13679579D02*
X8196491Y-13660531D01*
X8196491Y-13660531D02*
X8206015Y-13651008D01*
X8206015Y-13651008D02*
X8225062Y-13641484D01*
X8415539Y-13641484D02*
X8434586Y-13641484D01*
X8434586Y-13641484D02*
X8453634Y-13651008D01*
X8453634Y-13651008D02*
X8463158Y-13660531D01*
X8463158Y-13660531D02*
X8472682Y-13679579D01*
X8472682Y-13679579D02*
X8482205Y-13717674D01*
X8482205Y-13717674D02*
X8482205Y-13765293D01*
X8482205Y-13765293D02*
X8472682Y-13803388D01*
X8472682Y-13803388D02*
X8463158Y-13822436D01*
X8463158Y-13822436D02*
X8453634Y-13831960D01*
X8453634Y-13831960D02*
X8434586Y-13841484D01*
X8434586Y-13841484D02*
X8415539Y-13841484D01*
X8415539Y-13841484D02*
X8396491Y-13831960D01*
X8396491Y-13831960D02*
X8386967Y-13822436D01*
X8386967Y-13822436D02*
X8377443Y-13803388D01*
X8377443Y-13803388D02*
X8367920Y-13765293D01*
X8367920Y-13765293D02*
X8367920Y-13717674D01*
X8367920Y-13717674D02*
X8377443Y-13679579D01*
X8377443Y-13679579D02*
X8386967Y-13660531D01*
X8386967Y-13660531D02*
X8396491Y-13651008D01*
X8396491Y-13651008D02*
X8415539Y-13641484D01*
X8567920Y-13841484D02*
X8567920Y-13708150D01*
X8567920Y-13727198D02*
X8577444Y-13717674D01*
X8577444Y-13717674D02*
X8596491Y-13708150D01*
X8596491Y-13708150D02*
X8625063Y-13708150D01*
X8625063Y-13708150D02*
X8644110Y-13717674D01*
X8644110Y-13717674D02*
X8653634Y-13736722D01*
X8653634Y-13736722D02*
X8653634Y-13841484D01*
X8653634Y-13736722D02*
X8663158Y-13717674D01*
X8663158Y-13717674D02*
X8682205Y-13708150D01*
X8682205Y-13708150D02*
X8710777Y-13708150D01*
X8710777Y-13708150D02*
X8729825Y-13717674D01*
X8729825Y-13717674D02*
X8739348Y-13736722D01*
X8739348Y-13736722D02*
X8739348Y-13841484D01*
X8834586Y-13841484D02*
X8834586Y-13708150D01*
X8834586Y-13727198D02*
X8844110Y-13717674D01*
X8844110Y-13717674D02*
X8863158Y-13708150D01*
X8863158Y-13708150D02*
X8891729Y-13708150D01*
X8891729Y-13708150D02*
X8910777Y-13717674D01*
X8910777Y-13717674D02*
X8920301Y-13736722D01*
X8920301Y-13736722D02*
X8920301Y-13841484D01*
X8920301Y-13736722D02*
X8929825Y-13717674D01*
X8929825Y-13717674D02*
X8948872Y-13708150D01*
X8948872Y-13708150D02*
X8977444Y-13708150D01*
X8977444Y-13708150D02*
X8996491Y-13717674D01*
X8996491Y-13717674D02*
X9006015Y-13736722D01*
X9006015Y-13736722D02*
X9006015Y-13841484D01*
X9396491Y-13631960D02*
X9225063Y-13889103D01*
X9653634Y-13641484D02*
X9672682Y-13641484D01*
X9672682Y-13641484D02*
X9691729Y-13651008D01*
X9691729Y-13651008D02*
X9701253Y-13660531D01*
X9701253Y-13660531D02*
X9710777Y-13679579D01*
X9710777Y-13679579D02*
X9720301Y-13717674D01*
X9720301Y-13717674D02*
X9720301Y-13765293D01*
X9720301Y-13765293D02*
X9710777Y-13803388D01*
X9710777Y-13803388D02*
X9701253Y-13822436D01*
X9701253Y-13822436D02*
X9691729Y-13831960D01*
X9691729Y-13831960D02*
X9672682Y-13841484D01*
X9672682Y-13841484D02*
X9653634Y-13841484D01*
X9653634Y-13841484D02*
X9634587Y-13831960D01*
X9634587Y-13831960D02*
X9625063Y-13822436D01*
X9625063Y-13822436D02*
X9615539Y-13803388D01*
X9615539Y-13803388D02*
X9606015Y-13765293D01*
X9606015Y-13765293D02*
X9606015Y-13717674D01*
X9606015Y-13717674D02*
X9615539Y-13679579D01*
X9615539Y-13679579D02*
X9625063Y-13660531D01*
X9625063Y-13660531D02*
X9634587Y-13651008D01*
X9634587Y-13651008D02*
X9653634Y-13641484D01*
X9806015Y-13822436D02*
X9815539Y-13831960D01*
X9815539Y-13831960D02*
X9806015Y-13841484D01*
X9806015Y-13841484D02*
X9796491Y-13831960D01*
X9796491Y-13831960D02*
X9806015Y-13822436D01*
X9806015Y-13822436D02*
X9806015Y-13841484D01*
X10006015Y-13841484D02*
X9891729Y-13841484D01*
X9948872Y-13841484D02*
X9948872Y-13641484D01*
X9948872Y-13641484D02*
X9929825Y-13670055D01*
X9929825Y-13670055D02*
X9910777Y-13689103D01*
X9910777Y-13689103D02*
X9891729Y-13698627D01*
X10082206Y-13660531D02*
X10091729Y-13651008D01*
X10091729Y-13651008D02*
X10110777Y-13641484D01*
X10110777Y-13641484D02*
X10158396Y-13641484D01*
X10158396Y-13641484D02*
X10177444Y-13651008D01*
X10177444Y-13651008D02*
X10186968Y-13660531D01*
X10186968Y-13660531D02*
X10196491Y-13679579D01*
X10196491Y-13679579D02*
X10196491Y-13698627D01*
X10196491Y-13698627D02*
X10186968Y-13727198D01*
X10186968Y-13727198D02*
X10072682Y-13841484D01*
X10072682Y-13841484D02*
X10196491Y-13841484D01*
X10367920Y-13641484D02*
X10329825Y-13641484D01*
X10329825Y-13641484D02*
X10310777Y-13651008D01*
X10310777Y-13651008D02*
X10301253Y-13660531D01*
X10301253Y-13660531D02*
X10282206Y-13689103D01*
X10282206Y-13689103D02*
X10272682Y-13727198D01*
X10272682Y-13727198D02*
X10272682Y-13803388D01*
X10272682Y-13803388D02*
X10282206Y-13822436D01*
X10282206Y-13822436D02*
X10291729Y-13831960D01*
X10291729Y-13831960D02*
X10310777Y-13841484D01*
X10310777Y-13841484D02*
X10348872Y-13841484D01*
X10348872Y-13841484D02*
X10367920Y-13831960D01*
X10367920Y-13831960D02*
X10377444Y-13822436D01*
X10377444Y-13822436D02*
X10386968Y-13803388D01*
X10386968Y-13803388D02*
X10386968Y-13755769D01*
X10386968Y-13755769D02*
X10377444Y-13736722D01*
X10377444Y-13736722D02*
X10367920Y-13727198D01*
X10367920Y-13727198D02*
X10348872Y-13717674D01*
X10348872Y-13717674D02*
X10310777Y-13717674D01*
X10310777Y-13717674D02*
X10291729Y-13727198D01*
X10291729Y-13727198D02*
X10282206Y-13736722D01*
X10282206Y-13736722D02*
X10272682Y-13755769D01*
X10510777Y-13641484D02*
X10529825Y-13641484D01*
X10529825Y-13641484D02*
X10548872Y-13651008D01*
X10548872Y-13651008D02*
X10558396Y-13660531D01*
X10558396Y-13660531D02*
X10567920Y-13679579D01*
X10567920Y-13679579D02*
X10577444Y-13717674D01*
X10577444Y-13717674D02*
X10577444Y-13765293D01*
X10577444Y-13765293D02*
X10567920Y-13803388D01*
X10567920Y-13803388D02*
X10558396Y-13822436D01*
X10558396Y-13822436D02*
X10548872Y-13831960D01*
X10548872Y-13831960D02*
X10529825Y-13841484D01*
X10529825Y-13841484D02*
X10510777Y-13841484D01*
X10510777Y-13841484D02*
X10491729Y-13831960D01*
X10491729Y-13831960D02*
X10482206Y-13822436D01*
X10482206Y-13822436D02*
X10472682Y-13803388D01*
X10472682Y-13803388D02*
X10463158Y-13765293D01*
X10463158Y-13765293D02*
X10463158Y-13717674D01*
X10463158Y-13717674D02*
X10472682Y-13679579D01*
X10472682Y-13679579D02*
X10482206Y-13660531D01*
X10482206Y-13660531D02*
X10491729Y-13651008D01*
X10491729Y-13651008D02*
X10510777Y-13641484D01*
X10653634Y-13641484D02*
X10653634Y-13679579D01*
X10729825Y-13641484D02*
X10729825Y-13679579D01*
X11025063Y-13917674D02*
X11015539Y-13908150D01*
X11015539Y-13908150D02*
X10996491Y-13879579D01*
X10996491Y-13879579D02*
X10986968Y-13860531D01*
X10986968Y-13860531D02*
X10977444Y-13831960D01*
X10977444Y-13831960D02*
X10967920Y-13784341D01*
X10967920Y-13784341D02*
X10967920Y-13746246D01*
X10967920Y-13746246D02*
X10977444Y-13698627D01*
X10977444Y-13698627D02*
X10986968Y-13670055D01*
X10986968Y-13670055D02*
X10996491Y-13651008D01*
X10996491Y-13651008D02*
X11015539Y-13622436D01*
X11015539Y-13622436D02*
X11025063Y-13612912D01*
X11186968Y-13708150D02*
X11186968Y-13841484D01*
X11139349Y-13631960D02*
X11091730Y-13774817D01*
X11091730Y-13774817D02*
X11215539Y-13774817D01*
X11444110Y-13841484D02*
X11444110Y-13641484D01*
X11529825Y-13841484D02*
X11529825Y-13736722D01*
X11529825Y-13736722D02*
X11520301Y-13717674D01*
X11520301Y-13717674D02*
X11501253Y-13708150D01*
X11501253Y-13708150D02*
X11472682Y-13708150D01*
X11472682Y-13708150D02*
X11453634Y-13717674D01*
X11453634Y-13717674D02*
X11444110Y-13727198D01*
X11653634Y-13841484D02*
X11634587Y-13831960D01*
X11634587Y-13831960D02*
X11625063Y-13822436D01*
X11625063Y-13822436D02*
X11615539Y-13803388D01*
X11615539Y-13803388D02*
X11615539Y-13746246D01*
X11615539Y-13746246D02*
X11625063Y-13727198D01*
X11625063Y-13727198D02*
X11634587Y-13717674D01*
X11634587Y-13717674D02*
X11653634Y-13708150D01*
X11653634Y-13708150D02*
X11682206Y-13708150D01*
X11682206Y-13708150D02*
X11701253Y-13717674D01*
X11701253Y-13717674D02*
X11710777Y-13727198D01*
X11710777Y-13727198D02*
X11720301Y-13746246D01*
X11720301Y-13746246D02*
X11720301Y-13803388D01*
X11720301Y-13803388D02*
X11710777Y-13822436D01*
X11710777Y-13822436D02*
X11701253Y-13831960D01*
X11701253Y-13831960D02*
X11682206Y-13841484D01*
X11682206Y-13841484D02*
X11653634Y-13841484D01*
X11834587Y-13841484D02*
X11815539Y-13831960D01*
X11815539Y-13831960D02*
X11806015Y-13812912D01*
X11806015Y-13812912D02*
X11806015Y-13641484D01*
X11986968Y-13831960D02*
X11967920Y-13841484D01*
X11967920Y-13841484D02*
X11929825Y-13841484D01*
X11929825Y-13841484D02*
X11910777Y-13831960D01*
X11910777Y-13831960D02*
X11901253Y-13812912D01*
X11901253Y-13812912D02*
X11901253Y-13736722D01*
X11901253Y-13736722D02*
X11910777Y-13717674D01*
X11910777Y-13717674D02*
X11929825Y-13708150D01*
X11929825Y-13708150D02*
X11967920Y-13708150D01*
X11967920Y-13708150D02*
X11986968Y-13717674D01*
X11986968Y-13717674D02*
X11996491Y-13736722D01*
X11996491Y-13736722D02*
X11996491Y-13755769D01*
X11996491Y-13755769D02*
X11901253Y-13774817D01*
X12072682Y-13831960D02*
X12091730Y-13841484D01*
X12091730Y-13841484D02*
X12129825Y-13841484D01*
X12129825Y-13841484D02*
X12148872Y-13831960D01*
X12148872Y-13831960D02*
X12158396Y-13812912D01*
X12158396Y-13812912D02*
X12158396Y-13803388D01*
X12158396Y-13803388D02*
X12148872Y-13784341D01*
X12148872Y-13784341D02*
X12129825Y-13774817D01*
X12129825Y-13774817D02*
X12101253Y-13774817D01*
X12101253Y-13774817D02*
X12082206Y-13765293D01*
X12082206Y-13765293D02*
X12072682Y-13746246D01*
X12072682Y-13746246D02*
X12072682Y-13736722D01*
X12072682Y-13736722D02*
X12082206Y-13717674D01*
X12082206Y-13717674D02*
X12101253Y-13708150D01*
X12101253Y-13708150D02*
X12129825Y-13708150D01*
X12129825Y-13708150D02*
X12148872Y-13717674D01*
X12225063Y-13917674D02*
X12234587Y-13908150D01*
X12234587Y-13908150D02*
X12253634Y-13879579D01*
X12253634Y-13879579D02*
X12263158Y-13860531D01*
X12263158Y-13860531D02*
X12272682Y-13831960D01*
X12272682Y-13831960D02*
X12282206Y-13784341D01*
X12282206Y-13784341D02*
X12282206Y-13746246D01*
X12282206Y-13746246D02*
X12272682Y-13698627D01*
X12272682Y-13698627D02*
X12263158Y-13670055D01*
X12263158Y-13670055D02*
X12253634Y-13651008D01*
X12253634Y-13651008D02*
X12234587Y-13622436D01*
X12234587Y-13622436D02*
X12225063Y-13612912D01*
X12586968Y-13917674D02*
X12577444Y-13908150D01*
X12577444Y-13908150D02*
X12558396Y-13879579D01*
X12558396Y-13879579D02*
X12548872Y-13860531D01*
X12548872Y-13860531D02*
X12539349Y-13831960D01*
X12539349Y-13831960D02*
X12529825Y-13784341D01*
X12529825Y-13784341D02*
X12529825Y-13746246D01*
X12529825Y-13746246D02*
X12539349Y-13698627D01*
X12539349Y-13698627D02*
X12548872Y-13670055D01*
X12548872Y-13670055D02*
X12558396Y-13651008D01*
X12558396Y-13651008D02*
X12577444Y-13622436D01*
X12577444Y-13622436D02*
X12586968Y-13612912D01*
X12663158Y-13708150D02*
X12663158Y-13841484D01*
X12663158Y-13727198D02*
X12672682Y-13717674D01*
X12672682Y-13717674D02*
X12691730Y-13708150D01*
X12691730Y-13708150D02*
X12720301Y-13708150D01*
X12720301Y-13708150D02*
X12739349Y-13717674D01*
X12739349Y-13717674D02*
X12748872Y-13736722D01*
X12748872Y-13736722D02*
X12748872Y-13841484D01*
X12872682Y-13841484D02*
X12853634Y-13831960D01*
X12853634Y-13831960D02*
X12844111Y-13822436D01*
X12844111Y-13822436D02*
X12834587Y-13803388D01*
X12834587Y-13803388D02*
X12834587Y-13746246D01*
X12834587Y-13746246D02*
X12844111Y-13727198D01*
X12844111Y-13727198D02*
X12853634Y-13717674D01*
X12853634Y-13717674D02*
X12872682Y-13708150D01*
X12872682Y-13708150D02*
X12901253Y-13708150D01*
X12901253Y-13708150D02*
X12920301Y-13717674D01*
X12920301Y-13717674D02*
X12929825Y-13727198D01*
X12929825Y-13727198D02*
X12939349Y-13746246D01*
X12939349Y-13746246D02*
X12939349Y-13803388D01*
X12939349Y-13803388D02*
X12929825Y-13822436D01*
X12929825Y-13822436D02*
X12920301Y-13831960D01*
X12920301Y-13831960D02*
X12901253Y-13841484D01*
X12901253Y-13841484D02*
X12872682Y-13841484D01*
X12996492Y-13708150D02*
X13072682Y-13708150D01*
X13025063Y-13641484D02*
X13025063Y-13812912D01*
X13025063Y-13812912D02*
X13034587Y-13831960D01*
X13034587Y-13831960D02*
X13053634Y-13841484D01*
X13053634Y-13841484D02*
X13072682Y-13841484D01*
X13291730Y-13708150D02*
X13291730Y-13908150D01*
X13291730Y-13717674D02*
X13310777Y-13708150D01*
X13310777Y-13708150D02*
X13348873Y-13708150D01*
X13348873Y-13708150D02*
X13367920Y-13717674D01*
X13367920Y-13717674D02*
X13377444Y-13727198D01*
X13377444Y-13727198D02*
X13386968Y-13746246D01*
X13386968Y-13746246D02*
X13386968Y-13803388D01*
X13386968Y-13803388D02*
X13377444Y-13822436D01*
X13377444Y-13822436D02*
X13367920Y-13831960D01*
X13367920Y-13831960D02*
X13348873Y-13841484D01*
X13348873Y-13841484D02*
X13310777Y-13841484D01*
X13310777Y-13841484D02*
X13291730Y-13831960D01*
X13501253Y-13841484D02*
X13482206Y-13831960D01*
X13482206Y-13831960D02*
X13472682Y-13812912D01*
X13472682Y-13812912D02*
X13472682Y-13641484D01*
X13663158Y-13841484D02*
X13663158Y-13736722D01*
X13663158Y-13736722D02*
X13653634Y-13717674D01*
X13653634Y-13717674D02*
X13634587Y-13708150D01*
X13634587Y-13708150D02*
X13596492Y-13708150D01*
X13596492Y-13708150D02*
X13577444Y-13717674D01*
X13663158Y-13831960D02*
X13644111Y-13841484D01*
X13644111Y-13841484D02*
X13596492Y-13841484D01*
X13596492Y-13841484D02*
X13577444Y-13831960D01*
X13577444Y-13831960D02*
X13567920Y-13812912D01*
X13567920Y-13812912D02*
X13567920Y-13793865D01*
X13567920Y-13793865D02*
X13577444Y-13774817D01*
X13577444Y-13774817D02*
X13596492Y-13765293D01*
X13596492Y-13765293D02*
X13644111Y-13765293D01*
X13644111Y-13765293D02*
X13663158Y-13755769D01*
X13729825Y-13708150D02*
X13806015Y-13708150D01*
X13758396Y-13641484D02*
X13758396Y-13812912D01*
X13758396Y-13812912D02*
X13767920Y-13831960D01*
X13767920Y-13831960D02*
X13786968Y-13841484D01*
X13786968Y-13841484D02*
X13806015Y-13841484D01*
X13948873Y-13831960D02*
X13929825Y-13841484D01*
X13929825Y-13841484D02*
X13891730Y-13841484D01*
X13891730Y-13841484D02*
X13872682Y-13831960D01*
X13872682Y-13831960D02*
X13863158Y-13812912D01*
X13863158Y-13812912D02*
X13863158Y-13736722D01*
X13863158Y-13736722D02*
X13872682Y-13717674D01*
X13872682Y-13717674D02*
X13891730Y-13708150D01*
X13891730Y-13708150D02*
X13929825Y-13708150D01*
X13929825Y-13708150D02*
X13948873Y-13717674D01*
X13948873Y-13717674D02*
X13958396Y-13736722D01*
X13958396Y-13736722D02*
X13958396Y-13755769D01*
X13958396Y-13755769D02*
X13863158Y-13774817D01*
X14129825Y-13841484D02*
X14129825Y-13641484D01*
X14129825Y-13831960D02*
X14110777Y-13841484D01*
X14110777Y-13841484D02*
X14072682Y-13841484D01*
X14072682Y-13841484D02*
X14053634Y-13831960D01*
X14053634Y-13831960D02*
X14044111Y-13822436D01*
X14044111Y-13822436D02*
X14034587Y-13803388D01*
X14034587Y-13803388D02*
X14034587Y-13746246D01*
X14034587Y-13746246D02*
X14044111Y-13727198D01*
X14044111Y-13727198D02*
X14053634Y-13717674D01*
X14053634Y-13717674D02*
X14072682Y-13708150D01*
X14072682Y-13708150D02*
X14110777Y-13708150D01*
X14110777Y-13708150D02*
X14129825Y-13717674D01*
X14206015Y-13917674D02*
X14215539Y-13908150D01*
X14215539Y-13908150D02*
X14234587Y-13879579D01*
X14234587Y-13879579D02*
X14244111Y-13860531D01*
X14244111Y-13860531D02*
X14253634Y-13831960D01*
X14253634Y-13831960D02*
X14263158Y-13784341D01*
X14263158Y-13784341D02*
X14263158Y-13746246D01*
X14263158Y-13746246D02*
X14253634Y-13698627D01*
X14253634Y-13698627D02*
X14244111Y-13670055D01*
X14244111Y-13670055D02*
X14234587Y-13651008D01*
X14234587Y-13651008D02*
X14215539Y-13622436D01*
X14215539Y-13622436D02*
X14206015Y-13612912D01*
M02*
