M48
; DRILL file {KiCad 9.0.6} date 2026-06-18T17:02:08+0200
; FORMAT={-:-/ absolute / metric / decimal}
; #@! TF.CreationDate,2026-06-18T17:02:09+02:00
; #@! TF.GenerationSoftware,Kicad,Pcbnew,9.0.6
; #@! TF.FileFunction,Plated,1,2,PTH
FMAT,2
METRIC
; #@! TA.AperFunction,Plated,PTH,ViaDrill
T1C0.300
; #@! TA.AperFunction,Plated,PTH,ComponentDrill
T2C0.800
; #@! TA.AperFunction,Plated,PTH,ComponentDrill
T3C1.000
; #@! TA.AperFunction,Plated,PTH,ComponentDrill
T4C1.100
; #@! TA.AperFunction,Plated,PTH,ComponentDrill
T5C1.300
; #@! TA.AperFunction,Plated,PTH,ComponentDrill
T6C3.500
%
G90
G05
T1
X121.0Y-96.5
X124.0Y-104.5
X131.5Y-93.0
X131.5Y-97.75
X131.5Y-99.55
X131.674Y-94.674
X134.286Y-105.286
X136.5Y-98.35
X137.5Y-99.5
X138.5Y-105.5
X139.5Y-100.0
X143.208Y-100.601
X143.5Y-107.9
X143.5Y-109.5
X147.0Y-101.201
X147.5Y-100.0
X147.5Y-102.5
X149.0Y-100.0
X149.0Y-101.5
X152.0Y-100.5
X155.0Y-104.5
X156.044Y-105.544
X159.446Y-100.446
X161.544Y-100.044
X178.5Y-39.595
X179.5Y-38.395
X180.5Y-98.5
X182.0Y-40.0
X183.5Y-37.9
X183.674Y-99.174
T2
X116.125Y-94.05
X116.125Y-98.95
X122.69Y-102.0
X130.31Y-102.0
X138.75Y-107.0
X139.26Y-91.0
X139.26Y-98.62
X141.25Y-107.0
X141.8Y-91.0
X141.8Y-98.62
X144.34Y-91.0
X144.34Y-98.62
X145.75Y-107.0
X146.88Y-91.0
X146.88Y-98.62
X148.25Y-107.0
X149.42Y-91.0
X149.42Y-98.62
X151.96Y-91.0
X151.96Y-98.62
X152.75Y-107.0
X154.5Y-91.0
X154.5Y-98.62
X155.25Y-107.0
X157.04Y-91.0
X157.04Y-98.62
X159.58Y-91.0
X159.58Y-98.62
X162.12Y-91.0
X162.12Y-98.62
X164.69Y-38.0
X166.5Y-107.5
X169.0Y-107.5
X172.31Y-38.0
X183.92Y-96.0
X186.46Y-96.0
X189.0Y-96.0
T3
X91.5Y-58.5
X91.5Y-62.5
X91.5Y-69.5
X91.5Y-73.5
X132.52Y-117.4
X135.06Y-117.4
X137.6Y-117.4
X140.14Y-117.4
X161.92Y-44.5
X164.46Y-44.5
X167.0Y-44.5
X169.54Y-44.5
X172.08Y-44.5
X174.62Y-44.5
X177.16Y-44.5
X179.7Y-44.5
X182.24Y-44.5
X184.78Y-44.5
X187.32Y-44.5
X189.86Y-44.5
X192.4Y-44.5
X194.94Y-44.5
X197.48Y-44.5
X200.02Y-44.5
T4
X123.25Y-91.25
X123.25Y-95.75
X129.75Y-91.25
X129.75Y-95.75
T5
X103.42Y-115.0
X108.5Y-115.0
T6
X92.5Y-45.5
X92.5Y-82.5
X207.5Y-45.5
X207.5Y-82.5
M30
